<?xml version="1.0" standalone="no"?>
<!DOCTYPE svg PUBLIC "-//W3C//DTD SVG 20010904//EN"
 "http://www.w3.org/TR/2001/REC-SVG-20010904/DTD/svg10.dtd">
<svg version="1.0" xmlns="http://www.w3.org/2000/svg"
 width="300.000000pt" height="300.000000pt" viewBox="0 0 300.000000 300.000000"
 preserveAspectRatio="xMidYMid meet">
<metadata>
Created by potrace 1.10, written by Peter Selinger 2001-2011
</metadata>
<g transform="translate(0.000000,300.000000) scale(0.050000,-0.050000)"
fill="#09e1de" stroke="none">
<path d="M2560 5967 c-1231 -185 -2202 -1085 -2490 -2307 -38 -163 -63 -584
-32 -540 12 17 22 48 22 70 1 33 4 35 20 10 17 -26 19 -25 20 5 0 19 9 35 20
35 11 0 20 34 20 75 1 56 6 67 20 45 14 -22 19 -23 20 -4 0 15 9 21 20 14 11
-7 20 -3 20 9 0 11 -11 21 -25 21 -20 1 -20 4 0 17 17 10 23 46 17 100 -4 46
0 88 9 93 9 6 27 60 39 120 13 61 29 110 36 110 8 0 31 54 52 120 21 66 44
120 51 120 7 0 14 23 17 51 2 29 16 64 32 79 15 16 44 69 65 119 20 50 44 91
52 91 8 0 15 14 15 30 0 17 9 30 20 30 11 0 20 14 20 32 0 18 18 52 39 75 60
66 201 260 201 277 0 9 20 17 45 18 25 0 34 6 20 11 -33 13 -32 47 0 47 30 0
135 94 135 121 0 10 14 19 30 19 17 0 30 14 30 30 0 17 18 30 40 30 22 0 40 9
40 20 0 11 14 20 31 20 17 0 26 8 20 19 -7 10 38 48 99 84 60 37 110 73 110
82 0 8 13 15 28 15 15 0 33 14 40 31 6 17 21 26 32 19 11 -7 20 -3 20 9 0 11
14 21 31 21 19 0 26 9 17 23 -9 14 -5 18 9 9 13 -8 66 8 118 35 52 26 140 64
195 83 55 20 148 57 206 83 59 26 115 43 125 36 10 -6 36 -1 58 10 42 23 117
34 261 40 70 3 81 8 50 21 -35 15 -32 18 20 21 59 3 59 3 10 19 -42 14 -37 16
35 18 47 1 85 11 85 21 0 11 14 15 30 8 17 -6 30 -1 30 12 0 13 8 18 18 12 20
-12 45 39 27 57 -12 13 -259 12 -345 -1z"/>
<path d="M3105 5958 c5 -15 22 -25 36 -22 21 5 21 0 1 -24 -22 -26 -19 -29 16
-22 23 4 46 -1 53 -11 6 -11 45 -20 85 -21 41 0 63 -6 49 -11 -14 -6 -20 -18
-14 -28 5 -9 23 -12 40 -6 16 6 29 1 29 -11 0 -12 21 -22 46 -22 25 0 58 -11
73 -25 21 -20 24 -20 13 0 -16 29 11 34 39 7 10 -10 62 -23 114 -29 52 -6 124
-24 160 -41 36 -17 137 -58 224 -93 208 -81 495 -229 478 -246 -8 -7 1 -13 20
-13 18 0 33 -8 33 -19 0 -10 19 -24 42 -32 23 -7 81 -52 130 -100 48 -48 88
-76 88 -64 0 13 16 2 35 -23 61 -80 245 -262 265 -262 11 0 20 -13 20 -30 0
-16 10 -30 21 -30 12 0 16 -9 9 -20 -7 -11 -5 -20 4 -20 9 0 52 -57 96 -125
44 -69 86 -128 95 -132 8 -3 15 -19 15 -35 0 -15 9 -28 20 -28 11 0 20 -18 20
-40 0 -22 9 -40 20 -40 11 0 20 -18 20 -40 0 -22 9 -40 20 -40 11 0 20 -19 20
-41 0 -23 9 -36 20 -29 11 7 20 -8 20 -35 0 -26 8 -56 17 -66 24 -26 143 -400
143 -449 0 -22 9 -40 19 -40 11 0 15 -13 9 -29 -7 -16 -4 -41 4 -55 15 -24 25
-65 33 -140 2 -18 10 -29 19 -24 18 11 46 -88 39 -136 -3 -19 13 -46 36 -60
23 -14 41 -36 41 -50 0 -13 9 -29 21 -36 30 -19 7 433 -31 590 -276 1147
-1130 2001 -2270 2270 -195 45 -568 65 -555 28z"/>
<path d="M5536 5597 c-6 -15 -3 -45 5 -67 14 -34 16 -35 18 -5 0 19 15 35 33
35 19 0 28 -11 22 -27 -7 -19 3 -24 36 -18 26 5 52 22 58 38 9 22 3 24 -22 10
-32 -18 -100 5 -128 44 -7 9 -17 4 -22 -10z"/>
<path d="M2519 5199 c-178 -12 -276 -63 -351 -181 -26 -43 -60 -78 -73 -78
-16 -1 -15 -7 5 -20 24 -15 24 -19 3 -20 -23 0 -23 -6 -3 -30 21 -26 20 -29
-6 -19 -48 19 -172 -101 -139 -134 14 -14 25 -41 25 -61 0 -64 119 -121 175
-85 25 17 55 25 66 18 11 -6 19 -5 17 5 -9 51 3 67 38 48 28 -15 34 -37 28
-93 -6 -52 -2 -70 13 -61 14 9 23 -1 23 -24 0 -26 -17 -43 -50 -49 -27 -5 -50
-3 -50 5 0 9 -22 19 -48 25 -56 10 -51 -37 5 -52 24 -6 21 -9 -10 -11 -24 -1
-48 9 -54 23 -8 20 -10 20 -11 0 -1 -14 -15 -25 -32 -25 -16 0 -30 -13 -30
-30 0 -16 -7 -30 -15 -30 -63 0 -60 -81 5 -149 38 -39 64 -71 57 -71 -7 0 2
-17 22 -38 51 -57 45 -247 -11 -373 -24 -54 -48 -117 -52 -138 -4 -22 -25 -59
-47 -82 -22 -23 -34 -48 -26 -55 7 -7 2 -25 -10 -41 -27 -32 -48 -213 -24
-213 9 0 17 -34 18 -75 3 -124 8 -154 27 -179 16 -20 19 -74 14 -206 -4 -93
11 -217 25 -208 9 6 17 -4 17 -22 0 -19 -9 -27 -23 -18 -16 10 -18 5 -6 -14
26 -41 31 -70 42 -268 11 -197 32 -299 126 -600 35 -110 65 -209 68 -220 3
-11 15 -38 26 -60 12 -22 17 -53 12 -68 -7 -19 -2 -22 17 -11 21 13 21 7 -2
-21 -17 -22 -20 -31 -5 -23 14 9 25 7 25 -4 0 -11 22 -46 49 -79 28 -32 48
-62 45 -66 -2 -5 0 -6 5 -3 4 3 34 -19 65 -48 31 -30 56 -46 56 -36 0 11 7 9
15 -2 95 -139 611 -175 705 -50 6 8 64 29 130 49 66 20 149 44 185 55 36 11
65 29 65 40 0 11 10 13 21 6 30 -18 266 101 333 168 51 50 90 74 131 80 28 4
235 247 235 276 0 15 10 27 21 27 12 0 16 8 10 19 -6 10 -4 23 6 29 10 7 24
43 32 82 7 38 20 70 30 70 47 0 78 593 40 755 -14 58 -33 105 -42 105 -8 0
-10 15 -3 33 9 23 5 29 -12 18 -15 -9 -23 -5 -21 12 10 72 -8 110 -101 216
-16 19 -33 47 -37 62 -3 16 -17 35 -30 43 -12 8 -24 22 -25 30 -5 46 -51 128
-78 139 -16 6 -30 27 -30 45 0 19 -18 72 -40 117 -22 46 -40 111 -40 144 0 34
-10 61 -21 61 -12 0 -17 8 -11 17 6 10 -7 34 -29 54 -22 20 -36 49 -30 64 6
15 3 23 -5 17 -9 -5 -38 30 -65 79 -26 49 -55 89 -64 89 -8 0 -15 14 -15 30 0
17 -9 30 -20 30 -11 0 -20 11 -20 25 0 14 -45 81 -100 149 -55 68 -100 133
-100 144 0 11 -18 32 -40 48 -22 15 -34 34 -27 41 8 7 2 13 -12 13 -21 0 -21
6 -1 30 22 26 20 29 -11 17 -27 -11 -33 -6 -24 17 14 35 -119 208 -249 322
-162 144 -226 193 -251 194 -14 0 -25 9 -25 20 0 11 -2 27 -3 35 -6 24 -142
140 -197 169 -27 14 -54 30 -60 36 -5 5 -78 5 -161 -1z m181 -182 c0 -37 128
-178 235 -259 114 -86 130 -119 33 -68 -32 16 -78 30 -103 30 -25 0 -83 27
-128 60 -89 65 -143 78 -125 31 15 -37 -100 -8 -151 38 -19 17 -44 31 -57 31
-44 0 -70 80 -37 117 34 37 333 56 333 20z m-380 -92 c0 -20 18 -47 40 -60 57
-36 49 -64 -13 -47 -64 17 -98 64 -81 109 17 44 54 42 54 -2z m285 -173 c66
-26 95 -49 95 -75 0 -43 27 -45 110 -9 42 18 78 20 120 7 33 -10 80 -21 105
-25 49 -7 147 -80 184 -137 19 -29 19 -34 0 -22 -16 9 -21 5 -14 -13 5 -15 23
-27 40 -26 16 2 45 -28 62 -65 24 -49 26 -67 8 -68 -17 0 -15 -8 5 -25 17 -14
48 -46 70 -72 l40 -47 -46 14 c-47 15 -44 -1 12 -88 3 -6 15 3 25 20 17 25 24
23 49 -11 32 -43 87 -115 120 -156 69 -87 110 -157 101 -173 -7 -10 -3 -24 9
-31 11 -7 20 -21 20 -32 0 -11 -9 -15 -20 -8 -11 7 -20 -1 -20 -17 0 -19 -13
-26 -38 -19 -21 5 -44 -1 -52 -14 -8 -13 -3 -20 13 -17 15 3 47 -5 71 -19 35
-19 49 -18 73 6 44 43 71 37 93 -21 25 -66 25 -95 0 -79 -11 7 -20 3 -20 -8 0
-11 11 -27 25 -36 14 -9 37 -59 50 -111 32 -124 31 -157 -5 -95 -20 34 -29 40
-29 17 -1 -36 46 -83 64 -65 7 6 23 -10 36 -35 14 -26 37 -54 52 -63 15 -9 33
-51 39 -95 7 -43 21 -79 31 -79 55 0 209 -226 223 -325 5 -39 17 -83 26 -98
138 -223 -82 -1088 -278 -1096 -9 -1 -66 -41 -127 -91 -60 -49 -147 -100 -193
-113 -46 -14 -102 -36 -124 -49 -22 -13 -92 -36 -156 -50 -64 -13 -120 -32
-126 -41 -6 -10 -26 -17 -46 -17 -20 0 -52 -18 -72 -40 -20 -22 -56 -40 -79
-40 -24 0 -52 -8 -62 -18 -31 -30 -232 11 -409 84 -106 43 -283 371 -263 487
2 13 -25 94 -59 180 -47 116 -65 194 -68 297 -3 77 -15 167 -28 200 -20 55
-20 57 8 21 23 -30 30 -32 30 -8 0 17 -6 37 -14 44 -8 8 -17 39 -21 69 -3 30
-15 120 -26 201 -10 81 -14 155 -8 164 15 24 -24 231 -69 374 -46 145 -19 385
44 385 10 0 2 -112 -9 -130 -15 -23 -22 -94 -19 -175 2 -45 11 -55 53 -55 41
0 47 6 33 35 -38 74 19 484 78 564 40 54 48 129 31 291 -10 96 -8 102 55 143
101 66 175 326 102 354 -49 19 -36 91 19 105 77 19 110 69 63 96 -50 30 -127
96 -102 88 11 -3 63 -23 115 -44z m-474 -21 c30 -22 34 -34 15 -52 -33 -34
-86 -9 -86 40 0 48 18 51 71 12z m177 -512 c23 -25 29 -37 12 -28 -26 14 -26
12 -3 -17 44 -54 -11 -43 -81 16 -32 28 -76 50 -98 50 -21 0 -38 10 -38 23 0
39 162 5 208 -44z"/>
<path d="M2605 4974 c30 -14 93 -61 140 -105 l85 -78 -90 92 c-49 51 -112 98
-140 105 -47 11 -46 10 5 -14z"/>
<path d="M4080 2851 c0 -17 12 -25 26 -20 15 6 39 -12 54 -40 15 -28 39 -51
53 -51 41 0 33 17 -37 81 -72 66 -96 73 -96 30z"/>
<path d="M29 2710 c56 -1344 1291 -2597 2646 -2683 213 -14 253 1 150 55 -30
15 -60 34 -66 42 -6 8 -41 17 -77 20 -37 3 -71 16 -76 29 -5 14 -22 20 -38 13
-16 -6 -41 0 -56 12 -15 13 -43 17 -63 9 -26 -10 -31 -7 -19 13 10 16 8 21 -5
13 -11 -7 -58 0 -103 16 -45 16 -82 24 -82 18 0 -7 -11 -3 -25 8 -14 11 -61
31 -105 45 -44 14 -98 35 -120 47 -22 11 -49 23 -60 25 -39 7 -260 117 -267
132 -3 9 -24 16 -45 16 -21 0 -38 8 -38 19 0 10 -54 47 -120 82 -65 35 -114
72 -108 82 6 10 4 16 -6 13 -33 -9 -147 66 -134 88 8 12 5 17 -5 10 -11 -7
-67 38 -124 98 -61 65 -113 104 -126 96 -14 -9 -18 -5 -9 9 8 13 2 23 -15 23
-27 0 -52 38 -65 97 -3 15 -23 40 -45 55 -22 16 -70 73 -105 128 -36 55 -72
100 -81 100 -10 0 -17 14 -17 30 0 17 -9 30 -20 30 -11 0 -20 18 -20 40 0 22
-9 40 -20 40 -11 0 -20 16 -20 36 0 20 -11 48 -25 63 -20 22 -19 24 5 10 17
-9 9 5 -16 32 -25 27 -69 103 -97 169 -28 66 -61 143 -72 170 -12 28 -25 68
-29 89 -4 22 -14 44 -22 50 -19 15 -30 59 -31 135 -1 35 -6 60 -12 57 -6 -4
-13 18 -15 49 -2 30 -22 88 -45 128 -23 40 -41 95 -41 121 0 27 -9 54 -20 61
-11 7 -21 32 -22 56 -2 41 -3 41 -18 -6 -16 -49 -16 -49 -19 10 -2 33 -12 78
-23 100 -12 26 -15 -41 -9 -200z"/>
<path d="M5921 2882 c-12 -22 -21 -53 -21 -69 0 -16 -11 -33 -25 -38 -14 -5
-22 -36 -19 -73 3 -38 -3 -60 -15 -53 -10 7 -25 -22 -33 -63 -7 -42 -22 -87
-32 -100 -10 -12 -16 -35 -14 -50 2 -14 -1 -39 -7 -56 -7 -16 -45 -133 -84
-260 -40 -126 -81 -243 -92 -260 -16 -27 -43 -82 -106 -220 -13 -27 -27 -54
-33 -60 -35 -35 -66 -85 -45 -73 34 21 31 2 -5 -34 -56 -56 -170 -213 -170
-234 0 -11 -13 -25 -30 -32 -16 -6 -25 -19 -19 -29 6 -10 2 -18 -10 -18 -11 0
-21 -16 -21 -35 -1 -26 -5 -28 -17 -9 -17 27 -238 -208 -227 -243 3 -10 -8
-13 -25 -6 -20 7 -31 0 -31 -19 0 -17 -8 -25 -19 -19 -10 7 -26 0 -35 -14 -9
-15 -81 -65 -161 -113 -80 -48 -145 -95 -145 -104 0 -10 -7 -17 -15 -16 -40 7
-66 -4 -55 -22 7 -11 -6 -20 -29 -20 -22 0 -41 -9 -41 -20 0 -11 -13 -20 -29
-20 -16 0 -79 -27 -140 -61 -61 -34 -111 -55 -111 -48 0 8 -12 4 -27 -8 -30
-25 -461 -166 -486 -160 -10 3 -57 -15 -106 -39 -49 -24 -116 -44 -150 -45
-56 0 -171 -75 -171 -111 0 -22 397 9 540 43 1139 266 2001 1129 2270 2269 66
284 60 671 -9 542z"/>
</g>
</svg>
